<?xml version="1.0" standalone="no"?>
<!DOCTYPE svg PUBLIC "-//W3C//DTD SVG 20010904//EN"
 "http://www.w3.org/TR/2001/REC-SVG-20010904/DTD/svg10.dtd">
<svg version="1.0" xmlns="http://www.w3.org/2000/svg"
 width="512.000000pt" height="512.000000pt" viewBox="0 0 512.000000 512.000000"
 preserveAspectRatio="xMidYMid meet">

<g transform="translate(0.000000,512.000000) scale(0.100000,-0.100000)"
fill="#000000" stroke="none">
<path d="M0 2560 l0 -2560 2560 0 2560 0 0 2560 0 2560 -2560 0 -2560 0 0
-2560z m2304 2099 c130 -26 228 -59 341 -114 161 -78 349 -216 401 -295 90
-136 -15 -321 -181 -320 -45 1 -104 31 -170 89 -204 178 -443 261 -718 248
-244 -11 -442 -93 -634 -260 -96 -83 -162 -96 -254 -49 -110 55 -148 182 -86
285 12 20 51 61 86 91 221 191 489 310 781 346 108 13 317 3 434 -21z m-56
-722 c133 -46 272 -148 313 -228 80 -158 -84 -345 -251 -286 -20 7 -61 34 -93
60 -58 47 -132 77 -192 77 -56 0 -129 -29 -180 -71 -27 -22 -61 -47 -75 -54
-101 -52 -228 -8 -279 98 -23 48 -26 93 -10 152 25 90 209 221 371 265 107 29
294 23 396 -13z m917 -769 c215 -73 368 -229 427 -434 l24 -82 409 164 c442
176 461 181 541 145 48 -22 101 -82 114 -131 14 -50 13 -1983 -1 -2033 -13
-47 -72 -115 -116 -134 -77 -32 -107 -23 -533 147 -220 88 -404 160 -409 160
-5 0 -14 -24 -21 -53 -18 -78 -84 -205 -141 -269 -67 -76 -181 -151 -282 -185
l-82 -28 -1037 -3 c-870 -2 -1048 0 -1105 12 -209 44 -369 167 -458 351 -66
137 -66 137 -63 1055 l3 825 27 75 c40 114 74 167 162 256 115 115 232 169
406 188 19 2 490 3 1045 2 l1010 -1 80 -27z"/>
<path d="M998 2766 c-57 -20 -85 -42 -116 -88 l-27 -42 -3 -800 c-2 -560 0
-812 8 -839 14 -49 65 -106 115 -128 38 -18 94 -19 1050 -19 956 0 1012 1
1050 19 43 19 100 78 116 118 5 14 9 355 9 829 0 781 -1 806 -20 843 -26 51
-82 97 -136 110 -69 17 -1997 14 -2046 -3z"/>
<path d="M3933 2332 l-313 -126 0 -392 0 -392 325 -130 325 -130 0 649 c0 513
-3 649 -12 648 -7 0 -154 -58 -325 -127z"/>
</g>
</svg>
