<?xml version="1.0" standalone="no"?>
<!DOCTYPE svg PUBLIC "-//W3C//DTD SVG 20010904//EN"
 "http://www.w3.org/TR/2001/REC-SVG-20010904/DTD/svg10.dtd">
<svg version="1.0" xmlns="http://www.w3.org/2000/svg"
 width="342.000000pt" height="147.000000pt" viewBox="0 0 342.000000 147.000000"
 preserveAspectRatio="xMidYMid meet">

<g transform="translate(0.000000,147.000000) scale(0.100000,-0.100000)"
fill="#000000" stroke="none">
<path d="M442 1168 c-30 -39 -89 -222 -80 -250 3 -7 15 28 27 77 12 49 33 111
45 137 24 50 26 57 8 36z"/>
<path d="M513 1145 c82 -136 119 -176 162 -173 l30 1 -30 4 c-16 3 -38 12 -48
21 -21 19 -77 99 -77 110 0 4 -14 23 -30 42 l-31 35 24 -40z"/>
<path d="M1432 1168 c-34 -43 -64 -141 -112 -368 -82 -390 -121 -494 -178
-476 -20 7 -95 106 -111 147 -5 13 -27 62 -49 109 -22 47 -52 119 -66 160 -34
96 -81 187 -114 223 -20 20 -34 27 -61 25 l-36 -1 35 -4 c19 -3 43 -12 54 -21
25 -23 80 -135 120 -245 82 -225 189 -407 241 -407 54 0 106 133 160 410 36
187 78 348 104 403 29 59 30 66 13 45z"/>
<path d="M1487 1158 c12 -13 42 -56 67 -95 51 -79 73 -96 114 -90 26 4 26 4
-4 6 -36 1 -62 28 -128 129 -25 39 -52 72 -58 72 -6 0 -2 -10 9 -22z"/>
<path d="M2396 1125 c-15 -30 -29 -69 -32 -87 -3 -19 7 -4 23 38 15 39 34 79
42 88 8 9 9 16 3 16 -6 0 -22 -25 -36 -55z"/>
<path d="M2477 1158 c11 -13 41 -55 66 -95 51 -79 74 -96 115 -90 26 4 26 4
-4 6 -37 1 -65 30 -128 129 -25 39 -51 72 -58 72 -6 0 -3 -10 9 -22z"/>
<path d="M2336 924 c-10 -41 -16 -77 -14 -80 3 -2 13 30 23 71 10 42 16 78 13
80 -2 3 -12 -29 -22 -71z"/>
<path d="M1730 981 c20 -4 41 -10 48 -15 17 -10 80 -126 99 -182 9 -27 18 -43
21 -36 6 20 -85 198 -114 221 -15 12 -40 21 -58 20 l-31 -1 35 -7z"/>
<path d="M2705 983 c11 -2 30 -6 42 -8 25 -6 86 -100 113 -178 50 -142 139
-341 165 -372 12 -14 11 -10 -4 17 -30 55 -87 187 -127 296 -70 187 -116 253
-178 251 -19 -1 -23 -3 -11 -6z"/>
<path d="M3305 844 c-4 -22 -13 -70 -21 -107 -15 -71 -17 -93 -10 -86 8 8 48
221 42 226 -2 3 -8 -12 -11 -33z"/>
<path d="M2311 816 c-1 -20 -8 -52 -57 -256 -29 -122 -62 -207 -87 -229 -47
-38 -116 58 -223 306 -10 24 -20 41 -22 38 -8 -8 80 -197 123 -265 51 -79 76
-103 106 -98 29 4 76 87 100 181 34 128 70 308 66 325 -4 14 -5 13 -6 -2z"/>
<path d="M1900 725 c0 -5 5 -17 10 -25 5 -8 10 -10 10 -5 0 6 -5 17 -10 25 -5
8 -10 11 -10 5z"/>
<path d="M3241 548 c-26 -102 -56 -183 -79 -210 -24 -28 -47 -21 -88 25 -20
23 -31 33 -23 22 27 -41 63 -75 79 -75 39 0 81 77 116 213 14 54 24 102 22
108 -2 5 -14 -32 -27 -83z"/>
</g>
</svg>
