<?xml version="1.0" standalone="no"?>
<!DOCTYPE svg PUBLIC "-//W3C//DTD SVG 20010904//EN"
 "http://www.w3.org/TR/2001/REC-SVG-20010904/DTD/svg10.dtd">
<svg version="1.0" xmlns="http://www.w3.org/2000/svg"
 width="128.000000pt" height="128.000000pt" viewBox="0 0 128.000000 128.000000"
 preserveAspectRatio="xMidYMid meet">

<g transform="translate(0.000000,128.000000) scale(0.100000,-0.100000)"
fill="#000000" stroke="none">
<path d="M223 1269 c-19 -19 -16 -41 15 -95 26 -47 27 -56 30 -205 l4 -156
-30 -47 c-44 -69 -57 -133 -56 -276 0 -97 4 -132 17 -157 10 -18 22 -33 27
-33 24 0 40 -61 40 -150 0 -88 1 -93 29 -121 34 -33 74 -38 110 -13 22 16 25
16 51 0 42 -24 100 -16 122 17 9 15 118 8 227 -14 117 -24 135 -24 187 2 35
16 49 32 71 77 24 49 27 68 27 147 -1 125 -34 244 -109 395 -18 36 -38 87 -44
114 -7 27 -21 62 -32 77 -16 22 -17 29 -6 29 8 0 26 9 41 21 55 43 19 120 -62
134 l-42 7 0 45 c0 41 -5 50 -47 92 -27 25 -55 59 -63 75 -20 39 -41 50 -74
42 -19 -5 -32 -17 -39 -36 -11 -30 -37 -41 -37 -17 0 20 -33 47 -58 47 -40 0
-54 -27 -48 -89 7 -63 -8 -106 -19 -55 -12 57 -36 112 -56 130 -26 24 -157 33
-176 13z m129 -38 c46 -17 63 -80 63 -230 l0 -134 -25 -7 c-14 -4 -37 -10 -52
-13 l-27 -7 -3 147 c-3 139 -5 151 -31 201 l-27 52 39 0 c22 0 50 -4 63 -9z
m338 -27 c0 -18 11 -31 45 -52 47 -28 69 -64 63 -103 -2 -20 -11 -25 -49 -30
-26 -4 -56 -12 -68 -18 -17 -9 -20 -9 -15 3 3 8 14 16 26 19 21 6 22 37 2 44
-22 7 -73 -47 -80 -85 -4 -20 -18 -50 -31 -66 -13 -16 -33 -46 -44 -67 -22
-44 -19 -42 -53 -29 -23 8 -26 15 -26 58 0 74 17 151 46 208 24 47 25 55 14
89 -9 26 -9 40 -1 48 7 7 15 0 26 -27 16 -37 17 -38 53 -31 48 9 52 12 52 40
0 22 17 37 33 28 4 -2 7 -15 7 -29z m205 -238 c59 -25 39 -67 -31 -64 -72 2
-84 -7 -84 -63 0 -79 -9 -89 -86 -89 -69 0 -134 20 -134 43 0 41 106 162 156
177 46 13 142 11 179 -4z m-20 -163 c22 -33 35 -80 29 -98 -9 -23 -70 -30 -99
-11 l-26 17 20 27 c11 15 22 44 26 64 8 41 24 42 50 1z m-410 -22 c60 -23 70
-31 73 -53 6 -50 -23 -87 -196 -244 -27 -25 -49 -57 -60 -88 -35 -100 -54 -59
-54 118 0 131 22 206 78 262 42 42 64 42 159 5z m227 -75 c38 1 49 -3 54 -18
3 -10 19 -25 36 -34 25 -13 29 -19 23 -42 -4 -15 -13 -61 -20 -102 -10 -59
-18 -79 -40 -97 -15 -14 -25 -30 -21 -38 6 -16 31 -11 58 12 15 13 19 11 37
-26 29 -57 27 -81 -21 -187 l-43 -94 -45 0 c-171 0 -332 75 -401 186 -19 32
-20 37 -6 67 8 18 18 43 22 57 8 29 53 80 71 80 7 0 14 -26 19 -67 7 -69 34
-123 60 -123 24 0 27 20 6 46 -28 35 -26 43 6 41 41 -3 44 31 4 39 -31 7 -36
14 -46 74 -5 31 -2 38 29 63 l35 27 14 -22 c8 -13 17 -35 21 -50 6 -25 36 -41
36 -19 0 5 10 11 22 13 34 5 32 25 -6 50 -47 31 -57 62 -35 107 10 20 20 44
23 54 4 14 11 16 33 10 16 -5 49 -8 75 -7z m276 -134 c126 -271 109 -523 -35
-525 -59 -1 -133 13 -133 25 0 17 82 178 90 178 4 0 15 -11 24 -25 12 -19 14
-30 6 -44 -22 -42 1 -71 29 -37 7 8 21 12 31 9 52 -14 20 50 -67 130 -18 17
-33 35 -33 41 0 6 -14 38 -30 71 -16 33 -30 71 -30 84 0 22 1 22 40 -13 22
-20 46 -36 53 -36 8 0 28 -16 46 -35 32 -35 51 -38 51 -8 0 19 -55 72 -97 95
-41 21 -75 85 -65 123 7 23 43 50 73 54 3 1 25 -39 47 -87z m-569 -452 c20
-14 21 -18 11 -42 -15 -33 -47 -42 -77 -22 -20 12 -23 23 -23 75 l0 61 33 -28
c18 -16 43 -36 56 -44z m111 -51 c27 -10 30 -13 16 -21 -12 -7 -25 -5 -42 6
-41 27 -29 34 26 15z"/>
</g>
</svg>
