<?xml version="1.0" standalone="no"?>
<!DOCTYPE svg PUBLIC "-//W3C//DTD SVG 20010904//EN"
 "http://www.w3.org/TR/2001/REC-SVG-20010904/DTD/svg10.dtd">
<svg version="1.0" xmlns="http://www.w3.org/2000/svg"
 width="128.000000pt" height="128.000000pt" viewBox="0 0 128.000000 128.000000"
 preserveAspectRatio="xMidYMid meet">

<g transform="translate(0.000000,128.000000) scale(0.100000,-0.100000)"
fill="#000000" stroke="none">
<path d="M584 1239 c-16 -18 -20 -40 -22 -133 l-4 -112 -32 32 c-41 41 -91 52
-140 29 -43 -21 -159 -141 -216 -225 -118 -174 -180 -400 -167 -613 8 -120 24
-156 83 -175 132 -44 358 -22 427 42 28 26 56 109 83 251 13 66 18 138 18 272
-1 151 2 183 14 188 8 3 21 0 29 -7 12 -10 14 -32 8 -122 -8 -129 7 -293 37
-416 39 -163 57 -184 174 -215 100 -26 278 -18 346 17 32 16 49 66 55 167 13
211 -49 437 -167 611 -57 84 -173 204 -216 225 -49 23 -99 12 -140 -29 l-32
-32 -4 112 c-4 131 -15 154 -78 154 -25 0 -43 -7 -56 -21z m81 -64 c0 -36 -3
-40 -24 -40 -34 0 -48 26 -33 60 9 19 18 25 35 23 19 -3 22 -9 22 -43z m5
-106 c0 -17 -5 -20 -32 -17 -22 2 -34 9 -36 21 -3 14 4 17 32 17 30 0 36 -4
36 -21z m-195 -54 c57 -28 72 -91 29 -120 -22 -14 -28 -15 -35 -4 -9 15 -12
46 -9 92 1 23 -2 28 -16 25 -10 -2 -23 -15 -28 -30 -15 -43 11 -113 64 -171
88 -97 107 -164 84 -297 -18 -104 -39 -172 -70 -227 -40 -70 -61 -79 -215 -91
-146 -12 -189 -23 -189 -47 0 -18 29 -31 95 -40 47 -8 48 -7 43 17 l-5 25 97
5 c111 5 153 24 196 87 l25 36 -7 -30 c-22 -93 -40 -130 -68 -144 -88 -42
-249 -54 -345 -25 -39 11 -55 21 -63 42 -15 36 -15 251 1 329 24 127 83 269
154 372 46 67 158 182 192 197 38 17 31 17 70 -1z m404 1 c33 -17 146 -136
188 -197 71 -103 130 -245 154 -372 16 -78 16 -293 1 -329 -9 -21 -24 -31 -68
-44 -101 -29 -314 -6 -362 40 -16 16 -58 167 -67 243 l-8 58 24 -21 c13 -12
42 -31 65 -42 58 -30 69 -47 70 -114 0 -32 6 -64 13 -71 6 -6 46 -13 90 -15
77 -4 78 -4 73 -29 -5 -25 -4 -26 43 -18 71 10 97 22 93 43 -4 20 -74 38 -189
47 l-77 6 -4 55 c-6 67 -29 102 -89 131 -155 75 -169 267 -31 418 55 60 81
129 66 173 -5 15 -18 28 -28 30 -14 3 -17 -2 -16 -25 3 -46 0 -77 -9 -92 -8
-12 -13 -12 -35 3 -43 28 -28 93 28 120 38 19 41 19 75 2z m-209 -27 c0 -17
-5 -20 -32 -17 -22 2 -34 9 -36 21 -3 14 4 17 32 17 30 0 36 -4 36 -21z m13
-66 c12 -12 -15 -33 -43 -33 -28 0 -55 21 -43 33 3 4 23 7 43 7 20 0 40 -3 43
-7z m-93 -62 l31 -18 -34 -26 -34 -26 -24 25 -24 26 24 19 c28 23 24 23 61 0z
m160 -1 l25 -19 -25 -25 -25 -25 -33 26 -33 25 28 19 c35 22 33 22 63 -1z"/>
<path d="M627 1204 c-14 -14 -7 -35 11 -32 9 2 17 10 17 17 0 16 -18 25 -28
15z"/>
</g>
</svg>
