<?xml version="1.0" standalone="no"?>
<!DOCTYPE svg PUBLIC "-//W3C//DTD SVG 20010904//EN"
 "http://www.w3.org/TR/2001/REC-SVG-20010904/DTD/svg10.dtd">
<svg version="1.0" xmlns="http://www.w3.org/2000/svg"
 width="128.000000pt" height="128.000000pt" viewBox="0 0 128.000000 128.000000"
 preserveAspectRatio="xMidYMid meet">

<g transform="translate(0.000000,128.000000) scale(0.100000,-0.100000)"
fill="#000000" stroke="none">
<path d="M273 1189 c-62 -15 -161 -86 -200 -143 -71 -103 -81 -237 -29 -352
23 -50 68 -100 304 -336 152 -153 284 -278 292 -278 8 0 139 125 291 278 326
327 334 339 334 487 0 77 -4 98 -27 147 -34 73 -104 142 -176 176 -47 22 -72
26 -142 27 -99 0 -149 -17 -227 -77 l-52 -40 -53 40 c-29 22 -71 48 -93 57
-49 20 -165 28 -222 14z m235 -48 c24 -12 64 -41 88 -63 l44 -41 44 41 c79 73
117 87 231 87 92 0 104 -2 153 -29 112 -62 173 -165 173 -292 0 -132 -16 -155
-331 -469 l-270 -270 -270 270 c-315 314 -331 337 -331 469 0 145 81 261 220
313 56 21 195 12 249 -16z"/>
<path d="M866 1061 c-14 -22 4 -51 32 -51 72 -1 152 -67 173 -143 6 -23 13
-48 15 -55 6 -21 36 -27 49 -9 9 12 10 31 4 65 -21 108 -109 191 -213 200 -33
3 -56 0 -60 -7z"/>
</g>
</svg>
