<?xml version="1.0" standalone="no"?>
<!DOCTYPE svg PUBLIC "-//W3C//DTD SVG 20010904//EN"
 "http://www.w3.org/TR/2001/REC-SVG-20010904/DTD/svg10.dtd">
 <link href="../css/main2.css" rel="stylesheet">
<svg version="1.0" xmlns="http://www.w3.org/2000/svg"
 width="128.000000pt" height="128.000000pt" viewBox="0 0 1280.000000 1280.000000"
 preserveAspectRatio="xMidYMid meet">
<metadata>
Created by potrace 1.16, written by Peter Selinger 2001-2019
</metadata>
<g transform="translate(0.000000,1280.000000) scale(0.100000,-0.100000)"
fill="var(--primary-color)" stroke="none">
<path d="M2554 8241 c-110 -54 -279 -158 -388 -240 -480 -361 -807 -880 -926
-1470 -26 -127 -24 -158 12 -184 l26 -20 114 51 c585 259 1195 289 1806 86
138 -46 419 -184 547 -269 189 -127 404 -321 557 -505 39 -47 62 -66 82 -68
36 -4 66 23 66 59 0 89 -372 679 -560 889 -60 66 -141 150 -146 150 -3 0 -20
-11 -37 -25 -18 -13 -43 -28 -56 -33 -23 -8 -23 -10 36 -73 93 -99 114 -125
211 -259 88 -120 106 -155 59 -113 -97 86 -381 250 -567 326 -76 32 -265 95
-330 111 -503 125 -1006 108 -1475 -49 -55 -18 -122 -43 -149 -54 l-48 -21 7
47 c4 27 28 113 55 193 154 469 450 869 856 1157 54 39 126 86 158 104 59 33
59 33 52 8 -29 -104 -40 -197 -40 -344 -1 -181 3 -195 76 -266 45 -43 58 -48
58 -21 0 10 7 44 15 75 14 53 13 60 -2 83 -14 22 -15 44 -10 157 7 143 29 254
76 397 36 106 37 121 13 143 -28 26 -60 21 -148 -22z"/>
<path d="M3155 8174 c-86 -13 -244 -50 -252 -58 -2 -2 1 -25 8 -51 10 -40 15
-46 33 -41 12 4 77 18 146 33 110 23 148 26 315 26 207 1 290 -10 465 -62 185
-55 362 -144 510 -256 l85 -64 32 37 32 37 -22 23 c-34 37 -221 159 -316 206
-174 88 -349 142 -546 171 -124 18 -369 17 -490 -1z"/>
<path d="M2812 7464 c-57 -28 -84 -60 -108 -126 -32 -89 8 -199 89 -248 45
-28 57 -25 24 5 -43 41 -70 103 -71 165 0 71 22 113 82 151 40 25 55 29 116
29 58 0 80 -5 116 -26 l45 -26 -30 32 c-68 73 -171 90 -263 44z"/>
<path d="M2943 7376 c79 -21 117 -71 117 -152 0 -60 -28 -106 -83 -134 -37
-20 -39 -21 -12 -17 55 10 83 25 111 63 37 48 41 137 8 181 -37 50 -82 73
-138 72 l-51 0 48 -13z"/>
<path d="M6696 7289 c-61 -14 -96 -41 -121 -89 -12 -25 -65 -175 -118 -335
-139 -425 -148 -455 -133 -461 7 -3 55 -3 107 -2 l94 3 115 344 c63 189 120
346 127 348 13 5 16 -3 146 -387 l103 -305 102 -3 c88 -2 102 -1 102 13 0 20
-154 507 -212 673 -33 94 -49 124 -79 154 -54 51 -139 69 -233 47z"/>
<path d="M4270 7200 c0 -79 2 -90 18 -91 9 0 53 -1 97 -2 l80 -2 5 -350 5
-350 98 -3 97 -3 0 350 c0 290 2 350 14 354 8 3 53 5 100 4 l86 -2 0 93 0 92
-300 0 -300 0 0 -90z"/>
<path d="M5222 6848 l3 -443 98 -3 97 -3 0 176 0 175 180 0 180 0 0 -175 0
-175 95 0 95 0 0 445 0 445 -95 0 -95 0 0 -170 0 -170 -180 0 -180 0 0 170 0
170 -100 0 -100 0 2 -442z"/>
<path d="M7570 7200 l0 -90 223 -1 c264 -1 277 -2 300 -30 21 -26 22 -78 3
-105 -13 -17 -31 -19 -193 -24 -195 -6 -215 -11 -273 -72 -50 -54 -61 -111
-58 -304 l3 -169 95 0 95 0 3 108 c1 59 5 107 7 107 2 0 124 -47 270 -105 147
-58 268 -105 271 -105 2 0 4 47 4 104 l0 103 -165 64 c-91 34 -164 64 -162 65
1 1 35 5 76 8 85 8 125 22 164 61 44 45 65 86 77 153 23 131 -28 249 -132 303
-34 17 -61 19 -323 19 l-285 0 0 -90z"/>
<path d="M8845 7276 c-42 -18 -94 -73 -119 -126 -16 -35 -21 -64 -21 -130 0
-75 4 -91 30 -139 36 -65 88 -106 156 -120 27 -6 119 -11 203 -11 135 0 155
-2 169 -18 22 -24 22 -84 0 -111 -17 -20 -27 -21 -268 -24 l-250 -2 0 -95 0
-95 250 -3 c277 -3 333 4 393 48 83 60 122 205 88 324 -21 72 -89 145 -152
164 -25 7 -105 12 -205 12 -195 0 -209 5 -209 74 0 31 6 48 21 62 19 17 42 19
270 22 l249 4 0 89 0 89 -287 0 c-215 -1 -296 -4 -318 -14z"/>
<path d="M9822 6848 l3 -443 98 -3 97 -3 0 446 0 445 -100 0 -100 0 2 -442z"/>
<path d="M10545 7276 c-43 -19 -95 -73 -119 -126 -16 -35 -21 -65 -21 -130 0
-75 4 -91 30 -139 36 -66 88 -106 158 -121 28 -6 118 -10 200 -9 128 1 151 -1
168 -17 24 -22 25 -84 2 -113 -17 -20 -27 -21 -268 -24 l-250 -2 0 -95 0 -95
250 -3 c277 -3 333 4 393 48 123 89 135 318 22 430 -62 62 -95 70 -297 70
-152 0 -172 2 -186 18 -25 27 -22 94 4 118 20 18 39 19 265 19 l244 0 0 93 0
92 -282 0 c-212 -1 -291 -4 -313 -14z"/>
<path d="M3405 7134 c-88 -32 -156 -144 -140 -232 10 -54 50 -118 93 -147 51
-35 62 -31 24 8 -42 43 -62 95 -62 159 0 62 21 103 74 143 52 39 152 47 221
16 l49 -22 -24 27 c-55 59 -151 79 -235 48z"/>
<path d="M1533 6253 c-28 -5 -28 -6 -2 -140 42 -219 151 -489 271 -668 256
-382 643 -652 1069 -744 283 -61 552 -49 844 36 401 117 779 404 1013 768 58
89 173 328 164 337 -4 4 -25 14 -47 21 l-39 14 -73 -146 c-95 -191 -180 -308
-333 -461 -150 -150 -271 -238 -445 -324 -146 -72 -260 -113 -415 -148 -91
-20 -132 -23 -310 -23 -207 0 -272 7 -410 45 -124 35 -176 55 -295 115 -426
215 -748 619 -868 1090 -14 55 -28 118 -31 140 -15 93 -16 95 -44 94 -15 -1
-37 -4 -49 -6z"/>
<path d="M6610 5950 c0 -264 7 -308 61 -373 17 -21 54 -50 83 -64 45 -24 63
-27 146 -27 111 0 167 21 223 84 61 67 68 105 65 376 -3 222 -4 239 -21 242
-10 2 -29 1 -43 -2 l-24 -6 0 -205 c0 -240 -9 -292 -56 -345 -81 -90 -248 -73
-308 30 -19 32 -21 56 -26 280 l-5 245 -47 0 -48 1 0 -236z"/>
<path d="M7595 6182 c-3 -3 -5 -160 -5 -349 l0 -343 50 0 50 0 2 258 3 257
180 -223 c99 -123 191 -239 205 -257 22 -30 31 -35 68 -35 l42 0 -2 347 -3
348 -45 0 -45 0 -5 -254 -5 -253 -195 242 c-107 134 -197 247 -201 251 -6 10
-86 18 -94 11z"/>
<path d="M8600 5841 l0 -351 50 0 50 0 0 345 c0 269 -3 345 -12 345 -7 1 -30
3 -50 6 l-38 6 0 -351z"/>
</g>
</svg>
